# xmcd
#
# Track frame offsets: 
#        150
#        26268
#        61830
#        84843
#        117214
#        153718
#        184989
#        204615
#
# Disc length: 3164 seconds
#
# Revision: 1
# Processed by: cddbd v1.5.2PL0 Copyright (c) Steve Scherf et al.
# Submitted via: ExactAudioCopy v0.90b4
#
DISCID=600c5a08
DTITLE=Various Artist - IGLOO Couleurs Jazz - Vol 3 
DYEAR=2002
DGENRE=Jazz
TTITLE0=Philippe Aerts Quartet - Upper West Side
TTITLE1=Ivan Paduart - Don't Explain
TTITLE2=Sadi - La Pompadour
TTITLE3=L'ame Des Poètes - La Fère Fille
TTITLE4=Alexi Tuomarila - Back To Track
TTITLE5=Majid Bekkas - African Blues
TTITLE6=Anne Wolf Trio - Débauche De Majeurs
TTITLE7=Manu Hermia Quartet - Seeds Of Wisdom
EXTD=YEAR: 2002
EXTT0=
EXTT1=
EXTT2=
EXTT3=
EXTT4=
EXTT5=
EXTT6=
EXTT7=
PLAYORDER=
